<?xml version="1.0" encoding="UTF-8" standalone="no"?>
<!DOCTYPE svg PUBLIC "-//W3C//DTD SVG 1.1//EN" "http://www.w3.org/Graphics/SVG/1.1/DTD/svg11.dtd">
<svg width="100%" height="100%" viewBox="0 0 331 204" version="1.1" xmlns="http://www.w3.org/2000/svg" xmlns:xlink="http://www.w3.org/1999/xlink" xml:space="preserve" xmlns:serif="http://www.serif.com/" style="fill-rule:evenodd;clip-rule:evenodd;stroke-linejoin:round;stroke-miterlimit:2;">
    <g id="Artboard2" transform="matrix(0.766195,0,0,0.726447,330.996,180.159)">
        <rect x="-432" y="-248" width="432" height="280" style="fill:none;"/>
        <g transform="matrix(2.94774,0,0,3.10903,-612.869,-400.174)">
            <path d="M64.834,67.787L78.574,124.59L194.131,115.629L201.58,68.683L64.834,67.787Z" style="fill:rgb(39,131,198);fill-rule:nonzero;"/>
        </g>
        <g transform="matrix(2.94774,0,0,3.10903,-612.869,-400.174)">
            <path d="M68.318,63.033L82.059,119.836L197.616,110.875L205.065,63.929L68.318,63.033Z" style="fill:rgb(41,171,226);fill-rule:nonzero;"/>
        </g>
        <g transform="matrix(0.322513,-0.0209787,0.0198904,0.34016,-397.395,-155.322)">
            <text x="345px" y="302.899px" style="font-family:'BowlbyOne', 'Bowlby One';font-size:149.236px;fill:white;">Brindes</text>
        </g>
        <g transform="matrix(0.224038,0.432397,-0.409965,0.236297,-246.661,-316.255)">
            <g transform="matrix(2.08954,-2.30237,2.30237,2.08954,-692.829,581.97)">
                <path d="M225.92,282.204C225.827,282.204 225.734,282.201 225.641,282.195L225.652,282.203L225.59,282.195L225.463,282.18C225.211,282.153 224.96,282.109 224.709,282.034C222.944,281.503 221.787,279.916 221.722,278.172C221.915,278.199 222.108,278.213 222.299,278.213C224.104,278.213 225.771,277.039 226.317,275.222L252.737,187.337L252.738,187.337L253.647,184.311C255.696,184.613 257.763,184.763 259.832,184.764C270.244,184.764 280.668,180.942 288.827,173.24C288.854,173.214 288.88,173.189 288.907,173.164C288.936,173.136 288.966,173.108 288.995,173.08C297.701,164.774 302.084,153.639 302.08,142.487C302.076,133.214 299.04,123.931 292.932,116.249C293.299,116.605 293.661,116.968 294.017,117.34C296.03,119.451 297.782,121.715 299.274,124.094C300.766,126.473 301.997,128.965 302.968,131.532C303.939,134.099 304.651,136.739 305.104,139.414C305.331,140.752 305.493,142.098 305.59,143.447C305.833,146.82 305.673,150.216 305.111,153.555C304.886,154.89 304.597,156.217 304.244,157.529C302.302,164.748 298.419,171.543 292.615,177.08C292.087,177.583 291.551,178.07 291.005,178.54C290.837,178.685 290.663,178.817 290.494,178.958C290.112,179.277 289.732,179.599 289.342,179.902C289.075,180.109 288.801,180.301 288.531,180.5C288.23,180.723 287.933,180.953 287.628,181.166C287.33,181.375 287.024,181.567 286.722,181.767C286.438,181.956 286.156,182.152 285.868,182.333C285.505,182.56 285.135,182.771 284.767,182.986C284.533,183.123 284.303,183.269 284.067,183.401C283.672,183.623 283.27,183.826 282.869,184.034C282.654,184.145 282.442,184.265 282.226,184.373C281.806,184.581 281.38,184.772 280.955,184.965C280.753,185.057 280.553,185.158 280.35,185.247C279.91,185.439 279.464,185.613 279.019,185.789C278.826,185.865 278.636,185.95 278.443,186.024C277.986,186.197 277.525,186.352 277.065,186.508C276.878,186.571 276.694,186.643 276.507,186.704C276.029,186.858 275.547,186.995 275.065,187.133C274.893,187.182 274.722,187.239 274.548,187.286C274.071,187.416 273.591,187.527 273.11,187.64C272.929,187.682 272.75,187.733 272.568,187.773C272.083,187.879 271.595,187.968 271.107,188.058C270.928,188.091 270.751,188.131 270.572,188.162C270.067,188.248 269.559,188.316 269.052,188.383C268.889,188.405 268.727,188.434 268.564,188.454C268.061,188.515 267.557,188.558 267.052,188.601C266.883,188.616 266.715,188.638 266.546,188.65C266.046,188.686 265.546,188.705 265.046,188.724C264.871,188.73 264.697,188.745 264.522,188.749C264.295,188.755 264.068,188.757 263.841,188.757C263.576,188.757 263.311,188.754 263.046,188.752C263.023,188.751 263,188.751 262.977,188.751C262.921,188.751 262.866,188.752 262.81,188.753C262.753,188.753 262.696,188.754 262.639,188.754C262.597,188.754 262.554,188.753 262.511,188.753L262.519,188.752C261.146,188.722 259.775,188.627 258.41,188.463C258.028,188.418 257.65,188.355 257.269,188.3L229.937,279.222C229.391,281.039 227.724,282.204 225.92,282.204ZM244.839,184.449C240.482,182.316 236.42,179.394 232.875,175.678C232.373,175.153 231.888,174.617 231.419,174.073C231.174,173.789 230.945,173.496 230.709,173.207C230.607,173.082 230.503,172.958 230.4,172.834C234.836,177.145 239.998,180.292 245.495,182.268L244.839,184.449Z" style="fill:rgb(241,234,225);fill-rule:nonzero;"/>
            </g>
            <g transform="matrix(2.08954,-2.30237,2.30237,2.08954,-692.829,581.97)">
                <path d="M254.839,180.347L226.317,275.222C225.65,277.442 223.309,278.701 221.089,278.034C218.869,277.366 217.61,275.026 218.278,272.806L246.799,177.93L254.839,180.347Z" style="fill:rgb(239,175,90);fill-rule:nonzero;"/>
            </g>
            <g transform="matrix(2.08954,-2.30237,2.30237,2.08954,-692.829,581.97)">
                <path d="M222.032,278.203C221.729,278.183 221.423,278.132 221.12,278.043C221.118,278.042 221.117,278.042 221.116,278.042C221.112,278.041 221.109,278.04 221.105,278.039C221.1,278.037 221.094,278.035 221.089,278.034C219.272,277.488 218.099,275.821 218.099,274.016C218.099,273.616 218.156,273.209 218.278,272.806L244.839,184.449L245.495,182.269C248.148,183.222 250.882,183.904 253.647,184.311L252.737,187.337L252.715,187.332C252.417,187.274 252.12,187.213 251.822,187.148L251.614,187.102C251.339,187.041 251.064,186.977 250.789,186.91L250.684,186.885C250.384,186.811 250.083,186.732 249.783,186.651L249.57,186.592C249.265,186.508 248.961,186.422 248.657,186.33C248.339,186.235 248.023,186.135 247.71,186.032C247.608,186 247.508,185.965 247.408,185.931C247.195,185.86 246.982,185.787 246.771,185.713C246.673,185.678 246.576,185.643 246.479,185.608L220.101,273.354C219.528,275.26 220.376,277.254 222.032,278.203Z" style="fill:rgb(233,159,80);fill-rule:nonzero;"/>
            </g>
            <g transform="matrix(2.08954,-2.30237,2.30237,2.08954,-692.829,581.97)">
                <path d="M229.255,171.678C245.365,188.562 272.111,189.19 288.995,173.08C305.879,156.971 306.506,130.224 290.397,113.34C274.287,96.457 247.54,95.829 230.657,111.938C213.773,128.048 213.145,154.795 229.255,171.678Z" style="fill:white;fill-rule:nonzero;"/>
            </g>
            <g transform="matrix(2.08954,-2.30237,2.30237,2.08954,-692.829,581.97)">
                <path d="M290.397,113.34C306.506,130.224 305.879,156.971 288.995,173.08C280.568,181.121 269.684,184.991 258.892,184.752C259.07,184.736 259.241,184.721 259.426,184.704C259.812,184.646 260.212,184.587 260.624,184.526C260.832,184.496 261.042,184.467 261.256,184.437C261.47,184.409 261.682,184.353 261.9,184.313C262.337,184.227 262.786,184.14 263.248,184.05C265.079,183.618 267.094,183.037 269.227,182.19C271.359,181.345 273.607,180.234 275.872,178.787C278.135,177.341 280.414,175.559 282.585,173.414C283.688,172.356 284.711,171.166 285.743,169.928C285.995,169.614 286.229,169.285 286.479,168.962C286.72,168.634 286.99,168.32 287.211,167.972C287.67,167.287 288.168,166.612 288.59,165.88C289.511,164.457 290.281,162.907 291.052,161.313C291.226,160.906 291.4,160.497 291.575,160.086L291.842,159.468L292.074,158.833C292.232,158.409 292.391,157.983 292.55,157.555C292.687,157.118 292.823,156.68 292.961,156.24L293.172,155.577L293.344,154.901C293.463,154.449 293.582,153.994 293.701,153.538C293.796,153.075 293.891,152.611 293.986,152.144L294.133,151.441L294.239,150.728C294.313,150.251 294.387,149.771 294.461,149.29C294.51,148.804 294.559,148.316 294.609,147.827L294.648,147.458L294.668,147.274C294.669,147.312 294.67,147.277 294.672,147.241C294.674,147.176 294.677,147.111 294.674,147.493L294.679,147.373L294.717,146.417L294.755,145.458L294.763,145.233L294.761,145.094L294.76,144.814L294.768,144.251L294.776,143.967L294.759,143.62C294.73,143.154 294.726,142.682 294.688,142.213C294.644,141.743 294.599,141.272 294.554,140.799C294.485,140.329 294.415,139.857 294.345,139.384C294.024,137.496 293.528,135.605 292.845,133.744C291.483,130.024 289.362,126.423 286.543,123.276C283.729,120.128 280.223,117.445 276.238,115.527C274.246,114.568 272.137,113.798 269.944,113.244C269.399,113.086 268.841,112.985 268.284,112.869C267.728,112.738 267.162,112.664 266.595,112.576C266.031,112.473 265.457,112.425 264.883,112.367L264.451,112.321L264.235,112.298C263.986,112.292 264.457,112.294 264.355,112.292L264.217,112.286L263.113,112.242L262.584,112.223L262.254,112.225C262.032,112.225 261.812,112.222 261.588,112.215L260.786,112.251C260.517,112.265 260.243,112.267 259.975,112.302C259.435,112.356 258.89,112.397 258.355,112.492C258.086,112.537 257.812,112.559 257.545,112.618L256.741,112.779C256.47,112.824 256.207,112.901 255.941,112.967C255.676,113.037 255.406,113.094 255.142,113.171C254.62,113.342 254.08,113.474 253.566,113.678C252.513,114.026 251.504,114.501 250.493,114.981L249.752,115.379L249.38,115.578L249.02,115.796L248.293,116.229L247.589,116.7L247.235,116.935L246.895,117.188L246.209,117.693L245.548,118.233L245.216,118.502L244.9,118.789L244.261,119.361L243.652,119.964L243.345,120.266L243.056,120.584L242.472,121.217L241.921,121.88L241.644,122.211L241.385,122.557L240.862,123.246L240.375,123.962L240.13,124.32L239.905,124.69L239.449,125.43L239.033,126.192L238.822,126.573L238.633,126.965L238.25,127.749L237.909,128.552L237.735,128.953C237.681,129.088 237.635,129.227 237.583,129.363L237.279,130.184C236.92,131.294 236.579,132.42 236.361,133.577C236.227,134.152 236.148,134.736 236.058,135.321C236.004,135.613 235.982,135.908 235.952,136.204L235.907,136.646L235.884,136.868L235.872,136.979C235.871,136.964 235.869,136.991 235.868,137.018C235.865,137.068 235.862,137.118 235.863,136.912L235.819,138.03L235.808,138.309L235.809,138.487L235.808,138.833L235.802,139.18C235.804,139.308 235.815,139.454 235.821,139.59C235.839,139.867 235.836,140.148 235.868,140.424C235.948,141.535 236.145,142.634 236.405,143.72C236.529,144.267 236.702,144.798 236.863,145.336C237.056,145.862 237.237,146.395 237.466,146.909C237.909,147.943 238.422,148.954 239.027,149.913C241.433,153.762 245.114,156.843 249.361,158.554C250.425,158.976 251.52,159.323 252.637,159.591C253.759,159.84 254.899,160.013 256.052,160.112C255.819,160.111 256.064,160.115 256.047,160.116L256.18,160.121L256.446,160.132L256.98,160.153L257.7,160.158C257.807,160.165 257.954,160.151 258.088,160.146L258.493,160.126C258.765,160.12 259.032,160.076 259.303,160.055C260.38,159.935 261.444,159.711 262.48,159.389C266.632,158.112 270.279,155.179 272.462,151.416C273.559,149.538 274.301,147.469 274.671,145.333L274.793,144.529L274.873,143.719L274.884,143.618C274.886,143.586 274.887,143.638 274.888,143.69C274.889,143.758 274.889,143.827 274.889,143.702L274.893,143.456L274.9,142.965L274.914,141.986C274.865,141.519 274.845,141.115 274.803,140.645L274.667,139.893C274.615,139.644 274.6,139.385 274.514,139.145C274.023,137.168 273.098,135.305 271.842,133.711C270.587,132.116 269.004,130.793 267.239,129.848C265.474,128.899 263.529,128.331 261.557,128.159L261.372,128.135C261.403,128.131 261.172,128.127 261.42,128.123L261.31,128.122L260.874,128.115L260.004,128.102L259.374,128.156C259.163,128.18 258.974,128.163 258.734,128.221C258.278,128.315 257.808,128.358 257.368,128.511L256.696,128.699C256.48,128.784 256.265,128.869 256.051,128.954C255.608,129.102 255.211,129.341 254.796,129.543C254.583,129.637 254.398,129.776 254.203,129.898C254.008,130.022 253.813,130.145 253.619,130.268C253.439,130.411 253.259,130.553 253.079,130.695C252.9,130.838 252.708,130.968 252.552,131.134C252.228,131.455 251.871,131.747 251.592,132.106C250.386,133.466 249.503,135.072 249.003,136.766C248.879,137.189 248.805,137.623 248.698,138.05C248.634,138.483 248.591,138.918 248.532,139.351C248.53,139.37 248.529,139.352 248.528,139.333C248.527,139.307 248.527,139.282 248.527,139.347L248.526,139.441L248.523,139.627L248.518,139.999L248.512,140.37L248.511,140.462L248.532,140.672L248.576,141.236C248.585,141.422 248.644,141.636 248.674,141.835C248.802,142.652 249.087,143.424 249.405,144.168C249.498,144.349 249.591,144.528 249.683,144.707L249.822,144.976L249.986,145.229C250.095,145.398 250.203,145.568 250.31,145.736C250.434,145.893 250.557,146.05 250.679,146.206C250.911,146.533 251.204,146.799 251.471,147.09C251.6,147.241 251.762,147.353 251.906,147.486C252.055,147.612 252.199,147.746 252.351,147.867C252.978,148.324 253.625,148.75 254.321,149.052C255.706,149.687 257.163,149.99 258.634,149.991L258.782,149.993L258.905,149.982L259.147,149.961C259.31,149.943 259.467,149.945 259.635,149.914C259.971,149.843 260.316,149.812 260.637,149.7C260.801,149.653 260.963,149.607 261.125,149.561C261.281,149.498 261.436,149.436 261.591,149.374C261.907,149.265 262.189,149.089 262.485,148.946C262.65,148.854 262.808,148.756 262.964,148.655C260.245,149.775 257.002,149.191 254.851,146.936C252.052,144.002 252.161,139.354 255.095,136.554C258.01,133.773 262.616,133.864 265.421,136.743C265.627,136.943 265.831,137.156 266.027,137.395C266.591,138.088 267.091,138.957 267.402,139.985C267.466,140.246 267.562,140.499 267.598,140.788C267.644,141.069 267.702,141.371 267.709,141.633C267.718,141.77 267.728,141.907 267.737,142.046L267.741,142.098L267.739,142.177L267.736,142.287L267.728,142.509C267.715,142.806 267.72,143.111 267.666,143.415C267.526,144.64 267.13,145.93 266.423,147.148C265.716,148.361 264.71,149.519 263.394,150.403C263.057,150.608 262.729,150.845 262.358,151.012C262.175,151.103 261.992,151.194 261.807,151.286C261.614,151.36 261.42,151.435 261.226,151.509C260.84,151.675 260.423,151.758 260.01,151.877C259.803,151.932 259.57,151.958 259.346,151.998L259.006,152.051L258.838,152.076L258.691,152.086C257.013,152.226 255.152,152.02 253.379,151.375C252.482,151.068 251.624,150.611 250.784,150.094C250.578,149.958 250.381,149.807 250.178,149.662C249.98,149.511 249.764,149.378 249.582,149.204C249.208,148.867 248.808,148.547 248.47,148.158C248.295,147.97 248.116,147.783 247.944,147.588C247.785,147.382 247.625,147.176 247.465,146.968L247.225,146.654C247.149,146.546 247.083,146.432 247.011,146.321C246.87,146.095 246.729,145.869 246.587,145.642C246.078,144.702 245.619,143.698 245.346,142.616C245.278,142.341 245.189,142.089 245.141,141.79C245.094,141.494 245.046,141.196 244.999,140.897L244.965,140.672L244.949,140.559L244.942,140.467L244.917,140.097L244.891,139.726L244.878,139.54L244.872,139.447L244.869,139.257C244.89,138.697 244.901,138.129 244.94,137.56C245.022,136.995 245.08,136.418 245.195,135.849C245.66,133.568 246.648,131.311 248.131,129.322C248.479,128.806 248.916,128.358 249.331,127.883C249.532,127.64 249.772,127.434 250.002,127.215C250.235,126.999 250.469,126.783 250.703,126.565C250.956,126.37 251.21,126.174 251.465,125.977C251.723,125.784 251.972,125.575 252.253,125.412C252.805,125.071 253.348,124.7 253.949,124.427C254.246,124.282 254.543,124.136 254.841,123.99C255.152,123.871 255.463,123.752 255.776,123.632C256.394,123.371 257.055,123.229 257.709,123.047C258.023,122.949 258.411,122.907 258.769,122.844C259.127,122.788 259.513,122.727 259.857,122.686C260.144,122.666 260.435,122.646 260.725,122.626L261.16,122.596L261.269,122.589C261.588,122.588 261.43,122.591 261.534,122.592L261.786,122.6C264.478,122.605 267.256,123.153 269.865,124.277C272.473,125.396 274.909,127.084 276.94,129.25C278.972,131.412 280.599,134.058 281.606,137.002C281.757,137.362 281.833,137.745 281.943,138.12C282.043,138.498 282.144,138.877 282.245,139.256C282.407,140.063 282.534,140.952 282.644,141.776L282.711,142.753L282.762,143.488C282.764,143.351 282.769,143.811 282.767,143.818L282.766,143.963L282.749,145.12L282.676,146.282C282.414,149.384 281.597,152.509 280.213,155.43C278.835,158.352 276.883,161.057 274.474,163.36C272.065,165.662 269.186,167.557 265.998,168.864C264.405,169.518 262.737,170.026 261.025,170.372C260.595,170.449 260.167,170.546 259.733,170.601L259.082,170.691C258.861,170.719 258.657,170.754 258.409,170.771L257.689,170.83L257.329,170.858C257.211,170.866 257.075,170.877 257.001,170.879L256.467,170.902L256.2,170.913L256.066,170.919C255.961,170.92 256.116,170.925 255.795,170.923C254.1,170.93 252.39,170.823 250.683,170.591C248.979,170.34 247.282,169.963 245.611,169.46C238.933,167.426 232.787,163.196 228.41,157.401C227.312,155.955 226.335,154.409 225.47,152.793C225.029,151.989 224.647,151.153 224.265,150.314C223.913,149.463 223.561,148.609 223.271,147.73C222.679,145.978 222.199,144.175 221.894,142.336C221.806,141.878 221.757,141.414 221.69,140.953C221.659,140.719 221.626,140.496 221.599,140.253L221.533,139.485L221.474,138.715L221.448,138.336L221.436,138.057L221.387,136.939L221.404,135.415C221.412,134.966 221.413,134.515 221.449,134.066C221.504,133.166 221.557,132.264 221.677,131.367C221.866,129.565 222.222,127.779 222.641,126.005L222.999,124.684C223.061,124.464 223.118,124.243 223.184,124.024L223.395,123.372L223.824,122.069L224.313,120.785L224.56,120.143L224.835,119.513L225.39,118.254L225.772,117.485C227.212,115.53 228.839,113.672 230.657,111.938C247.54,95.829 274.287,96.457 290.397,113.34Z" style="fill:rgb(253,215,39);fill-rule:nonzero;"/>
            </g>
            <g transform="matrix(2.08954,-2.30237,2.30237,2.08954,-692.829,581.97)">
                <path d="M259.832,184.764C257.763,184.763 255.696,184.613 253.647,184.311C250.882,183.904 248.148,183.222 245.495,182.269C239.998,180.292 234.836,177.145 230.4,172.834C230.013,172.458 229.631,172.072 229.255,171.678C229.176,171.596 229.098,171.514 229.021,171.431C229.013,171.423 229.005,171.415 228.998,171.407C228.99,171.398 228.982,171.39 228.975,171.382C228.079,170.425 227.236,169.437 226.446,168.421C233.913,174.022 242.836,176.84 251.773,176.84C262.253,176.839 272.75,172.964 280.932,165.158C288.916,157.54 293.265,147.542 293.927,137.335C294.09,138.017 294.229,138.701 294.345,139.384C294.415,139.857 294.485,140.329 294.554,140.799C294.599,141.272 294.644,141.743 294.688,142.213C294.726,142.682 294.73,143.154 294.759,143.62L294.776,143.967L294.768,144.251L294.76,144.814L294.761,145.094L294.763,145.233L294.755,145.458L294.717,146.417L294.679,147.373L294.674,147.493C294.676,147.257 294.676,147.192 294.674,147.192C294.674,147.192 294.673,147.216 294.672,147.241C294.67,147.266 294.669,147.29 294.669,147.29C294.668,147.29 294.668,147.286 294.668,147.274L294.648,147.458L294.609,147.827C294.559,148.316 294.51,148.804 294.461,149.29C294.387,149.771 294.313,150.251 294.239,150.728L294.133,151.441L293.986,152.144C293.891,152.611 293.796,153.075 293.701,153.538C293.582,153.994 293.463,154.449 293.344,154.901L293.172,155.577L292.961,156.24C292.823,156.68 292.687,157.118 292.55,157.555C292.391,157.983 292.232,158.409 292.074,158.833L291.842,159.468L291.575,160.086C291.4,160.497 291.226,160.906 291.052,161.313C290.281,162.907 289.511,164.457 288.59,165.88C288.168,166.612 287.67,167.287 287.211,167.972C286.99,168.32 286.72,168.634 286.479,168.962C286.229,169.285 285.995,169.614 285.743,169.928C284.711,171.166 283.688,172.356 282.585,173.414C280.414,175.559 278.135,177.341 275.872,178.787C273.607,180.234 271.359,181.345 269.227,182.19C267.094,183.037 265.079,183.618 263.248,184.05C262.786,184.14 262.337,184.227 261.9,184.313C261.682,184.353 261.47,184.409 261.256,184.437C261.042,184.467 260.832,184.496 260.624,184.526C260.212,184.587 259.812,184.646 259.426,184.704C259.241,184.721 259.07,184.736 258.892,184.752C259.206,184.759 259.518,184.763 259.832,184.763C270.242,184.762 280.67,180.939 288.827,173.24C280.668,180.942 270.244,184.764 259.832,184.764ZM288.907,173.164C288.937,173.136 288.966,173.108 288.995,173.08C288.966,173.108 288.936,173.136 288.907,173.164Z" style="fill:rgb(249,231,228);fill-rule:nonzero;"/>
            </g>
            <g transform="matrix(2.08954,-2.30237,2.30237,2.08954,-692.829,581.97)">
                <path d="M259.832,184.763C259.518,184.763 259.206,184.759 258.892,184.752C259.07,184.736 259.241,184.721 259.426,184.704C259.812,184.646 260.212,184.587 260.624,184.526C260.832,184.496 261.042,184.467 261.256,184.437C261.47,184.409 261.682,184.353 261.9,184.313C262.337,184.227 262.786,184.14 263.248,184.05C265.079,183.618 267.094,183.037 269.227,182.19C271.359,181.345 273.607,180.234 275.872,178.787C278.135,177.341 280.414,175.559 282.585,173.414C283.688,172.356 284.711,171.166 285.743,169.928C285.995,169.614 286.229,169.285 286.479,168.962C286.72,168.634 286.99,168.32 287.211,167.972C287.67,167.287 288.168,166.612 288.59,165.88C289.511,164.457 290.281,162.907 291.052,161.313C291.226,160.906 291.4,160.497 291.575,160.086L291.842,159.468L292.074,158.833C292.232,158.409 292.391,157.983 292.55,157.555C292.687,157.118 292.823,156.68 292.961,156.24L293.172,155.577L293.344,154.901C293.463,154.449 293.582,153.994 293.701,153.538C293.796,153.075 293.891,152.611 293.986,152.144L294.133,151.441L294.239,150.728C294.313,150.251 294.387,149.771 294.461,149.29C294.51,148.804 294.559,148.316 294.609,147.827L294.648,147.458L294.668,147.274C294.668,147.286 294.668,147.29 294.669,147.29C294.669,147.29 294.67,147.266 294.672,147.241C294.673,147.216 294.674,147.192 294.674,147.192C294.676,147.192 294.676,147.257 294.674,147.493L294.679,147.373L294.717,146.417L294.755,145.458L294.763,145.233L294.761,145.094L294.76,144.814L294.768,144.251L294.776,143.967L294.759,143.62C294.73,143.154 294.726,142.682 294.688,142.213C294.644,141.743 294.599,141.272 294.554,140.799C294.485,140.329 294.415,139.857 294.345,139.384C294.229,138.701 294.09,138.017 293.927,137.335C294.579,127.298 291.667,117.059 285.143,108.675C286.946,110.028 288.667,111.541 290.28,113.219L290.281,113.22C290.292,113.231 290.303,113.243 290.314,113.254C290.319,113.26 290.324,113.265 290.329,113.27C290.338,113.279 290.346,113.287 290.354,113.296C290.368,113.311 290.383,113.326 290.397,113.34C298.2,121.518 302.076,132.01 302.08,142.487C302.084,153.639 297.701,164.774 288.995,173.08C288.966,173.108 288.937,173.136 288.907,173.164C288.88,173.189 288.854,173.214 288.827,173.24C280.67,180.939 270.242,184.762 259.832,184.763Z" style="fill:rgb(253,184,42);fill-rule:nonzero;"/>
            </g>
            <g transform="matrix(2.08954,-2.30237,2.30237,2.08954,-692.829,581.97)">
                <path d="M229.369,132.869C228.795,132.869 228.222,132.746 227.693,132.5C225.788,131.614 224.916,129.369 225.707,127.39C229.356,118.276 236.258,110.924 245.142,106.69C246.594,105.998 248.101,105.39 249.621,104.882C250.038,104.743 250.465,104.675 250.886,104.675C251.928,104.675 252.939,105.089 253.7,105.864C254.77,106.954 255.118,108.525 254.607,109.964C254.198,111.121 253.296,112.007 252.134,112.395C250.918,112.801 249.712,113.288 248.55,113.842C241.454,117.224 235.947,123.096 233.045,130.378C232.644,131.385 231.836,132.191 230.829,132.591C230.362,132.777 229.866,132.869 229.369,132.869Z" style="fill:rgb(255,243,219);fill-rule:nonzero;"/>
            </g>
        </g>
        <g transform="matrix(0.514511,-0.0379104,0.0359436,0.542663,-438.81,-267.742)">
            <text x="345px" y="302.899px" style="font-family:'BowlbyOne', 'Bowlby One';font-size:149.236px;fill:white;">ML</text>
        </g>
    </g>
</svg>
